<svg xmlns="http://www.w3.org/2000/svg" xmlns:xlink="http://www.w3.org/1999/xlink" viewBox="0 0 145.84 50"><defs><style>.cls-1,.cls-10,.cls-11,.cls-12,.cls-13,.cls-14,.cls-15,.cls-16,.cls-17,.cls-18,.cls-19,.cls-2,.cls-20,.cls-21,.cls-22,.cls-23,.cls-24,.cls-25,.cls-26,.cls-27,.cls-28,.cls-29,.cls-3,.cls-30,.cls-31,.cls-32,.cls-33,.cls-34,.cls-35,.cls-36,.cls-37,.cls-4,.cls-5,.cls-6,.cls-7,.cls-8,.cls-9{stroke:#fff;stroke-miterlimit:10;stroke-width:0.2px;}.cls-1{fill:url(#linear-gradient);}.cls-2{fill:url(#linear-gradient-2);}.cls-3{fill:url(#linear-gradient-3);}.cls-4{fill:url(#linear-gradient-4);}.cls-5{fill:url(#linear-gradient-5);}.cls-6{fill:url(#linear-gradient-6);}.cls-7{fill:url(#linear-gradient-7);}.cls-8{fill:url(#linear-gradient-8);}.cls-9{fill:url(#linear-gradient-9);}.cls-10{fill:url(#linear-gradient-10);}.cls-11{fill:url(#linear-gradient-11);}.cls-12{fill:url(#linear-gradient-12);}.cls-13{fill:url(#linear-gradient-13);}.cls-14{fill:url(#linear-gradient-14);}.cls-15{fill:url(#linear-gradient-15);}.cls-16{fill:url(#linear-gradient-16);}.cls-17{fill:url(#linear-gradient-17);}.cls-18{fill:url(#linear-gradient-18);}.cls-19{fill:url(#linear-gradient-19);}.cls-20{fill:url(#linear-gradient-20);}.cls-21{fill:url(#linear-gradient-21);}.cls-22{fill:url(#linear-gradient-22);}.cls-23{fill:url(#linear-gradient-23);}.cls-24{fill:url(#linear-gradient-24);}.cls-25{fill:url(#linear-gradient-25);}.cls-26{fill:url(#linear-gradient-26);}.cls-27{fill:url(#linear-gradient-27);}.cls-28{fill:url(#linear-gradient-28);}.cls-29{fill:url(#linear-gradient-29);}.cls-30{fill:url(#linear-gradient-30);}.cls-31{fill:url(#linear-gradient-31);}.cls-32{fill:url(#linear-gradient-32);}.cls-33{fill:url(#linear-gradient-33);}.cls-34{fill:url(#linear-gradient-34);}.cls-35{fill:url(#linear-gradient-35);}.cls-36{fill:url(#linear-gradient-36);}.cls-37{fill:url(#linear-gradient-37);}.cls-38{font-size:29.91px;fill:#deb019;font-family:Arial-BoldMT, Arial;font-weight:700;}</style><linearGradient id="linear-gradient" x1="14.28" y1="-235.67" x2="27.51" y2="-235.67" gradientTransform="matrix(1, 0, 0, -1, 0, -211.41)" gradientUnits="userSpaceOnUse"><stop offset="0" stop-color="#fff"/><stop offset="1"/></linearGradient><linearGradient id="linear-gradient-2" x1="13.84" y1="-229.55" x2="17.83" y2="-229.55" gradientTransform="matrix(1, 0, 0, -1, 0, -211.41)" gradientUnits="userSpaceOnUse"><stop offset="0" stop-color="#fff"/><stop offset="0.06" stop-color="#fff1d3"/><stop offset="0.13" stop-color="#fee4a9"/><stop offset="0.21" stop-color="#fed884"/><stop offset="0.29" stop-color="#fece66"/><stop offset="0.38" stop-color="#fdc64c"/><stop offset="0.48" stop-color="#fdc039"/><stop offset="0.59" stop-color="#fdbb2b"/><stop offset="0.74" stop-color="#fdb923"/><stop offset="1" stop-color="#fdb821"/></linearGradient><linearGradient id="linear-gradient-3" x1="23.75" y1="-229.53" x2="27.75" y2="-229.53" xlink:href="#linear-gradient-2"/><linearGradient id="linear-gradient-4" x1="10.4" y1="-234.52" x2="14.39" y2="-234.52" xlink:href="#linear-gradient-2"/><linearGradient id="linear-gradient-5" x1="18.73" y1="-226.67" x2="22.98" y2="-226.67" xlink:href="#linear-gradient-2"/><linearGradient id="linear-gradient-6" x1="27.33" y1="-234.15" x2="31.32" y2="-234.15" xlink:href="#linear-gradient-2"/><linearGradient id="linear-gradient-7" x1="11.6" y1="-239" x2="15.86" y2="-239" xlink:href="#linear-gradient-2"/><linearGradient id="linear-gradient-8" x1="25.91" y1="-238.83" x2="30.16" y2="-238.83" xlink:href="#linear-gradient-2"/><linearGradient id="linear-gradient-9" x1="16.5" y1="-243.4" x2="20.5" y2="-243.4" xlink:href="#linear-gradient-2"/><linearGradient id="linear-gradient-10" x1="21.25" y1="-243.27" x2="25.25" y2="-243.27" xlink:href="#linear-gradient-2"/><linearGradient id="linear-gradient-11" x1="7.18" y1="-230.1" x2="13.3" y2="-230.1" xlink:href="#linear-gradient"/><linearGradient id="linear-gradient-12" x1="14.16" y1="-224.45" x2="19.97" y2="-224.45" xlink:href="#linear-gradient"/><linearGradient id="linear-gradient-13" x1="21.67" y1="-224.25" x2="27.47" y2="-224.25" xlink:href="#linear-gradient"/><linearGradient id="linear-gradient-14" x1="28.16" y1="-229.97" x2="34.18" y2="-229.97" xlink:href="#linear-gradient"/><linearGradient id="linear-gradient-15" x1="30.08" y1="-237.19" x2="36.83" y2="-237.19" xlink:href="#linear-gradient"/><linearGradient id="linear-gradient-16" x1="5.63" y1="-237.19" x2="12.42" y2="-237.19" xlink:href="#linear-gradient"/><linearGradient id="linear-gradient-17" x1="11.13" y1="-244.6" x2="16.3" y2="-244.6" xlink:href="#linear-gradient"/><linearGradient id="linear-gradient-18" x1="17.88" y1="-248.05" x2="24.06" y2="-248.05" xlink:href="#linear-gradient"/><linearGradient id="linear-gradient-19" x1="25.45" y1="-244.18" x2="30.93" y2="-244.18" xlink:href="#linear-gradient"/><linearGradient id="linear-gradient-20" x1="25.48" y1="-248.94" x2="31.44" y2="-248.94" xlink:href="#linear-gradient-2"/><linearGradient id="linear-gradient-21" x1="21.92" y1="-249.81" x2="26.3" y2="-249.81" xlink:href="#linear-gradient-2"/><linearGradient id="linear-gradient-22" x1="31.78" y1="-240.83" x2="37.82" y2="-240.83" xlink:href="#linear-gradient-2"/><linearGradient id="linear-gradient-23" x1="31.3" y1="-244.45" x2="35.6" y2="-244.45" xlink:href="#linear-gradient-2"/><linearGradient id="linear-gradient-24" x1="32.66" y1="-229.73" x2="37.36" y2="-229.73" xlink:href="#linear-gradient-2"/><linearGradient id="linear-gradient-25" x1="32.67" y1="-234.27" x2="37.97" y2="-234.27" xlink:href="#linear-gradient-2"/><linearGradient id="linear-gradient-26" x1="27.21" y1="-223.02" x2="31.11" y2="-223.02" xlink:href="#linear-gradient-2"/><linearGradient id="linear-gradient-27" x1="28.56" y1="-224.58" x2="34.9" y2="-224.58" xlink:href="#linear-gradient-2"/><linearGradient id="linear-gradient-28" x1="15.32" y1="-220.84" x2="19.96" y2="-220.84" xlink:href="#linear-gradient-2"/><linearGradient id="linear-gradient-29" x1="21.39" y1="-220.96" x2="26.37" y2="-220.96" xlink:href="#linear-gradient-2"/><linearGradient id="linear-gradient-30" x1="6.32" y1="-224.8" x2="12.69" y2="-224.8" xlink:href="#linear-gradient-2"/><linearGradient id="linear-gradient-31" x1="10.09" y1="-222.77" x2="13.78" y2="-222.77" xlink:href="#linear-gradient-2"/><linearGradient id="linear-gradient-32" x1="3.59" y1="-235.82" x2="8.7" y2="-235.82" xlink:href="#linear-gradient-2"/><linearGradient id="linear-gradient-33" x1="4.08" y1="-230.45" x2="8.95" y2="-230.45" xlink:href="#linear-gradient-2"/><linearGradient id="linear-gradient-34" x1="6.19" y1="-245" x2="10.5" y2="-245" xlink:href="#linear-gradient-2"/><linearGradient id="linear-gradient-35" x1="3.97" y1="-241.04" x2="9.99" y2="-241.04" xlink:href="#linear-gradient-2"/><linearGradient id="linear-gradient-36" x1="15.45" y1="-250.01" x2="19.83" y2="-250.01" xlink:href="#linear-gradient-2"/><linearGradient id="linear-gradient-37" x1="10.42" y1="-249.05" x2="16.37" y2="-249.05" xlink:href="#linear-gradient-2"/></defs><g id="Layer_5" data-name="Layer 5"><polygon class="cls-1" points="23.19 17.73 26.71 20.69 27.51 25.22 25.2 29.21 20.88 30.79 16.57 29.21 14.28 25.22 15.06 20.69 18.6 17.73 23.19 17.73"/><polygon class="cls-2" points="17.82 17.5 14.56 20.24 13.83 16.05 17.82 17.5"/><polygon class="cls-3" points="27.75 16.03 27.01 20.21 23.75 17.5 27.75 16.03"/><polygon class="cls-4" points="13.65 25.2 10.4 22.48 14.39 21.01 13.65 25.2"/><polygon class="cls-5" points="22.98 17.11 18.73 17.11 20.84 13.42 22.98 17.11"/><polygon class="cls-6" points="31.33 22.09 28.07 24.83 27.34 20.65 31.33 22.09"/><polygon class="cls-7" points="15.86 29.43 11.61 29.43 13.74 25.76 15.86 29.43"/><polygon class="cls-8" points="30.16 29.25 25.91 29.25 28.03 25.59 30.16 29.25"/><polygon class="cls-9" points="20.5 31.35 17.24 34.09 16.5 29.9 20.5 31.35"/><polygon class="cls-10" points="25.24 29.77 24.51 33.96 21.25 31.24 25.24 29.77"/><polygon class="cls-11" points="13.31 19.83 9.86 21.42 7.18 16.57 12.75 15.96 13.31 19.83"/><polygon class="cls-12" points="17.8 16.29 14.15 15.17 15.45 9.79 19.96 13.07 17.8 16.29"/><polygon class="cls-13" points="27.47 15.02 26.11 9.58 21.66 12.9 23.73 16.09 27.47 15.02"/><polygon class="cls-14" points="31.7 21.25 34.18 16.22 28.63 15.88 28.16 19.65 31.7 21.25"/><polygon class="cls-15" points="31.61 28.78 36.83 26.77 32.99 22.78 30.08 25.22 31.61 28.78"/><polygon class="cls-16" points="12.43 25.39 10.76 28.8 5.63 26.73 9.55 22.76 12.43 25.39"/><polygon class="cls-17" points="15.16 30.38 16.31 34 11.13 36.01 11.28 30.42 15.16 30.38"/><polygon class="cls-18" points="17.88 35.45 20.97 40.11 24.06 35.51 21.06 33.18 17.88 35.45"/><polygon class="cls-19" points="25.44 34.37 30.92 35.49 29.86 30.05 26.09 30.53 25.44 34.37"/><path class="cls-20" d="M27.47,39.78l-2-4.51,6,2.29A14.65,14.65,0,0,1,27.47,39.78Z"/><path class="cls-21" d="M26.3,40.08l-1.79-4.59-2.59,5.82A14.56,14.56,0,0,0,26.3,40.08Z"/><path class="cls-22" d="M36.18,31.54l-4.4-2.2,6-2.05A14.06,14.06,0,0,1,36.18,31.54Z"/><path class="cls-23" d="M35.6,32.36,31.31,30,33,36.12A15,15,0,0,0,35.6,32.36Z"/><path class="cls-24" d="M37.37,19.7l-4.7,1.44,2.95-5.65A14.48,14.48,0,0,1,37.37,19.7Z"/><path class="cls-25" d="M37.5,20.6l-4.83.95L38,25.11A14.2,14.2,0,0,0,37.5,20.6Z"/><path class="cls-26" d="M31.11,10.81l-2.93,3.95-1-6.3A14.43,14.43,0,0,1,31.11,10.81Z"/><path class="cls-27" d="M31.67,11.26l-3.1,3.82,6.34-.6A14.71,14.71,0,0,0,31.67,11.26Z"/><path class="cls-28" d="M19.83,7,20,11.91,15.32,7.53A15,15,0,0,1,19.83,7Z"/><path class="cls-29" d="M21.92,7.1,21.4,12l5-4A13.7,13.7,0,0,0,21.92,7.1Z"/><path class="cls-30" d="M9,11.61l3.73,3.56-6.36-.11A10.36,10.36,0,0,1,9,11.61Z"/><path class="cls-31" d="M10.07,10.83l3.24,3.71.45-6.36A13.57,13.57,0,0,0,10.07,10.83Z"/><path class="cls-32" d="M3.81,22.14l4.9.53-4.94,4A13.15,13.15,0,0,1,3.81,22.14Z"/><path class="cls-33" d="M4.07,20.86,9,21.62,5.2,16.46A14.15,14.15,0,0,0,4.07,20.86Z"/><path class="cls-34" d="M6.19,32.9l4.31-2.37L8.76,36.65A14,14,0,0,1,6.19,32.9Z"/><path class="cls-35" d="M5.56,31.76,10,29.58,4,27.51A14.3,14.3,0,0,0,5.56,31.76Z"/><path class="cls-36" d="M15.45,40.28l1.79-4.6,2.59,5.83A13.11,13.11,0,0,1,15.45,40.28Z"/><path class="cls-37" d="M14.39,39.89l2-4.51-6,2.29A14.65,14.65,0,0,0,14.39,39.89Z"/></g><g id="Layer_3" data-name="Layer 3"><text class="cls-38" transform="translate(39.33 34.3)">Eira 0.1</text></g></svg>